# xmcd CD database file
#
# Track frame offsets:
#	150
#	14477
#	29710
#	43280
#	59132
#	77712
#	99025
#	113390
#	129612
#	144837
#	158600
#	172310
#	200612
#
# Disc length: 2865 seconds
#
# Revision: 1
# Processed by: cddbd v1.4b41PL3 Copyright (c) Steve Scherf et al.
# Submitted via: CDex 1.40Beta4
#
DISCID=b20b2f0d
DTITLE=Robbie Fulks - Let's Kill Saturday Night
DYEAR=1998
DGENRE=Country
TTITLE0=Let's Kill Saturday Night
TTITLE1=Caroline
TTITLE2=Pretty Little Poison
TTITLE3=She Must Think I Like Poetry
TTITLE4=Bethelridge
TTITLE5=Take Me To The Paradise
TTITLE6=Little King
TTITLE7=You Shouldn't Have
TTITLE8=God Isn't Real
TTITLE9=Down In Her Arms
TTITLE10=Can't Win For Losing You
TTITLE11=Night Accident
TTITLE12=Stone River
EXTD=YEAR: 1998 ID3G:   2
EXTT0=
EXTT1=
EXTT2=
EXTT3=
EXTT4=
EXTT5=
EXTT6=
EXTT7=
EXTT8=
EXTT9=
EXTT10=
EXTT11=
EXTT12=
PLAYORDER=
